<?xml version="1.0" encoding="utf-8"?>
<!-- Generator: Adobe Illustrator 24.2.0, SVG Export Plug-In . SVG Version: 6.00 Build 0)  -->
<svg version="1.1" id="Layer_1" xmlns="http://www.w3.org/2000/svg" xmlns:xlink="http://www.w3.org/1999/xlink" x="0px" y="0px"
	 viewBox="0 0 113.4 113.4" style="enable-background:new 0 0 113.4 113.4;" xml:space="preserve">
<style type="text/css">
	.st0{fill:#DA532C;}
	.st1{fill:#023030;}
	.st2{fill:#137333;}
	.st3{fill:#7FD99A;}
	.st4{fill:#FFFFFF;}
	.st5{font-family:'Poppins-SemiBold';}
	.st6{font-size:32.5642px;}
	.st7{font-family:'Poppins-ExtraBold';}
	.st8{font-size:31.5603px;}
</style>
<rect x="-185.5" y="-8" class="st0" width="129.4" height="129.4"/>
<g>
	<path class="st1" d="M396.8-159.6c-23.7,0-42.7,19-42.7,42.7s19,42.7,42.7,42.7s42.7-19,42.7-42.7S420.2-159.6,396.8-159.6z
		 M396.8-88.7c-15.7,0-28.2-12.7-28.2-28.2s12.5-28.4,28.2-28.4s28.2,12.8,28.2,28.2C424.7-101.4,412.2-88.7,396.8-88.7L396.8-88.7
		L396.8-88.7z"/>
	<path class="st1" d="M397-123.3h35.1c4,0,7.2,3.1,7.2,7.2l0,0c0,4-3.1,7.2-7.2,7.2H397c-4,0-7.2-3.1-7.2-7.2l0,0
		C389.8-120.2,392.9-123.3,397-123.3z"/>
</g>
<text transform="matrix(1 0 0 1 84.1766 -169.1768)" class="st1" style="font-family:'Poppins-Black'; font-size:26.3306px;">ADMIN</text>
<rect y="135.8" class="st1" width="113.4" height="113.4"/>
<text transform="matrix(1 0 0 1 21.7827 179.4644)" class="st4" style="font-family:'Poppins-Regular'; font-size:34px;">Lipa</text>
<text transform="matrix(1.0325 0 0 1 21.0122 211.4844)" class="st3" style="font-family:'Poppins-Bold'; font-size:32.9518px; letter-spacing:-1;">GAS</text>
<g>
	<g>
		<path class="st2" d="M76.7,216.1c-0.2,1.2-0.4,2.4-0.4,3.6c0,10.7,9.1,19.4,20.4,19.4c0,0-2.6-7.7-7.5-14.1
			C84.3,218.7,76.7,216.1,76.7,216.1z"/>
		<path class="st3" d="M96.8,239.2c0.2-1.2,0.4-2.4,0.4-3.6c0-10.7-9.1-19.4-20.4-19.4L96.8,239.2z"/>
	</g>
</g>
<rect y="-136.5" class="st1" width="113.4" height="113.4"/>
<text transform="matrix(1 0 0 1 21.7827 -92.7524)" class="st4" style="font-family:'Poppins-Regular'; font-size:34px;">Lipa</text>
<text transform="matrix(1.0325 0 0 1 21.0122 -60.7324)" class="st3" style="font-family:'Poppins-Bold'; font-size:32.9518px; letter-spacing:-1;">GAS</text>
<rect x="146.4" y="8" class="st1" width="129.4" height="129.4"/>
<g>
	<text transform="matrix(1 0 0 1 173.9001 -79.9897)" class="st4" style="font-family:'Poppins-Regular'; font-size:38.7827px;">Lipa</text>
	<text transform="matrix(1.0325 0 0 1 174.126 -39.1597)" class="st3" style="font-family:'Poppins-Bold'; font-size:37.587px;">Gas</text>
	<g>
		<rect x="239.5" y="-26.1" class="st4" width="21.9" height="5.1"/>
		<polygon class="st4" points="257.8,-33.8 251.6,-33.8 260,-23.5 251.6,-13.4 257.8,-13.4 266.1,-23.5 		"/>
	</g>
</g>
<g>
	<g>
		<path class="st1" d="M1.4,11.4c0-5.5,4.5-10,10-10H102c5.5,0,10,4.5,10,10V102c0,5.5-4.5,10-10,10H11.4c-5.5,0-10-4.5-10-10V11.4z
			"/>
	</g>
	<g>
		<text transform="matrix(1 0 0 1 14.9951 46.4746)" class="st4 st5 st6">lipa</text>
		<text transform="matrix(1.0325 0 0 1 15.1841 80.7578)" class="st3 st7 st8">gas</text>
		<g>
			<rect x="70.1" y="91.7" class="st4" width="18.4" height="4.3"/>
			<polygon class="st4" points="85.5,85.3 80.2,85.3 87.3,93.9 80.2,102.4 85.5,102.4 92.4,93.9 			"/>
		</g>
	</g>
</g>
<g>
	<g>
		<path class="st4" d="M99.2-45.2L99.2-45.2C99.3-45.3,99.3-45.3,99.2-45.2c0.1-0.1,0.1-0.1,0.1-0.2c0,0,0,0,0-0.1c0,0,0,0,0-0.1
			c0,0,0,0,0-0.1c0,0,0,0,0-0.1c0,0,0,0,0-0.1c0,0,0,0,0-0.1v-0.1c0,0,0,0,0-0.1s0-0.2,0-0.3c0,0,0,0,0-0.1v-0.1c0,0,0,0,0-0.1
			c0,0,0,0,0-0.1c0,0,0,0,0-0.1c0,0,0,0,0-0.1c0,0,0,0,0-0.1c0,0,0,0,0-0.1c0,0,0,0,0-0.1c0,0,0,0,0-0.1c0,0,0,0,0-0.1l0,0l-0.1-0.1
			l-8.5-8.5c-0.5-0.5-1.4-0.5-2,0c-0.5,0.5-0.5,1.4,0,2l6.1,6.1H77.4c-0.8,0-1.4,0.6-1.4,1.4c0,0.8,0.6,1.4,1.4,1.4h17.3l-6.1,6.1
			c-0.5,0.5-0.5,1.4,0,2c0.3,0.3,0.6,0.4,1,0.4s0.7-0.1,1-0.4L99-45C99.1-45.1,99.1-45.1,99.2-45.2L99.2-45.2z"/>
	</g>
</g>
<text transform="matrix(1 0 0 1 168.666 55.7229)" class="st4 st5" style="font-size:38.3203px;">Lipa</text>
<text transform="matrix(1.0325 0 0 1 169.0039 93.4502)" class="st3" style="font-family:'Poppins-Bold'; font-size:37.1389px;">Gas</text>
<g>
	<g>
		<polygon class="st4" points="236,107.2 229.4,107.2 238.9,116.7 229.4,126.1 236,126.1 245.4,116.7 		"/>
	</g>
	<g>
		<polygon class="st4" points="247.1,107.2 240.5,107.2 249.9,116.7 240.5,126.1 247.1,126.1 256.5,116.7 		"/>
	</g>
</g>
</svg>
